<?xml version="1.0" encoding="utf-8"?>
<!-- Generator: Adobe Illustrator 26.5.0, SVG Export Plug-In . SVG Version: 6.00 Build 0)  -->
<svg version="1.1" id="Layer_1" xmlns="http://www.w3.org/2000/svg" xmlns:xlink="http://www.w3.org/1999/xlink" x="0px" y="0px"
	 viewBox="0 0 500 500" style="enable-background:new 0 0 500 500;" xml:space="preserve">
<g>
	<path d="M0,363.48c0.78-2.96,1.5-5.93,2.35-8.87c8.36-28.96,37.66-46.63,67.71-40.86c29.5,5.67,49.57,33.76,46.16,64.62
		c-3.2,28.97-29.4,51.53-59.05,50.85c-28.25-0.65-51.47-20.82-56.31-48.89c-0.13-0.76-0.56-1.47-0.85-2.21
		C0,373.25,0,368.37,0,363.48z M99.98,371.01c0.05-22.98-18.46-41.62-41.42-41.71c-22.88-0.09-41.74,18.5-41.89,41.33
		c-0.16,23.1,18.58,41.92,41.76,41.91C81.45,412.52,99.93,394.06,99.98,371.01z"/>
	<path d="M250,329.27c-15.78,0-31.57,0.01-47.35-0.01c-8.01-0.01-10.88-2.82-10.89-10.88c-0.04-23.43-0.07-46.87,0.04-70.3
		c0.02-3.9-0.77-7.05-3.39-10.19c-24.08-28.86-47.8-58.01-72.06-86.71c-5.57-6.59-7.78-13.66-7.9-21.83
		c-0.36-25.27,8.93-47.16,24.78-66.17c28.06-33.67,63.83-54,107.66-58.65c24.07-2.55,46.86,3.51,68.48,13.85
		c30.24,14.47,55.1,35.07,71.14,65.04c9.28,17.33,13.74,35.85,10.12,55.53c-0.71,3.87-3.27,7.72-5.85,10.87
		c-24.32,29.71-48.88,59.22-73.19,88.95c-1.75,2.13-2.85,5.45-2.88,8.22c-0.22,23.43-0.12,46.86-0.13,70.3
		c0,9.6-2.44,11.99-12.21,11.99C280.91,329.27,265.45,329.27,250,329.27z M374.98,130.43c0.88-13.4-2.63-25.44-8.28-36.93
		C338.5,36.27,253.52-10.71,174.21,46.54c-22.16,15.99-39.13,36.26-46.54,63.19c-1.81,6.57-2.17,13.54-3.25,20.73
		c25.68-1.1,48.2,3.97,67.36,19.71c29.07-24.79,82.95-27.98,116.98-0.12C327.8,134.46,350.16,129.38,374.98,130.43z M250.17,229.13
		c2.11,0,4.27-0.25,6.34,0.05c4.67,0.68,7.19-1.22,9.49-5.39c10.07-18.19,20.44-36.22,31.01-54.13c2.2-3.73,1.9-5.79-1.45-8.38
		c-12.04-9.32-25.89-13.41-40.79-14.14c-18.02-0.88-34.85,2.84-49.65,13.88c-3.45,2.57-4.19,4.64-1.81,8.64
		c9.55,16.06,19.16,32.11,27.8,48.66C235.47,226.66,240.18,231.9,250.17,229.13z M291.52,312.37c0-22.45,0-44.31,0-66.13
		c-27.81,0-55.2,0-82.73,0c0,22.26,0,44.14,0,66.13C236.54,312.37,263.96,312.37,291.52,312.37z M218.19,229.12
		c-1.25-2.29-1.98-3.7-2.76-5.07c-10.26-17.9-20.91-35.59-30.62-53.79c-4.3-8.06-10.42-13.29-18.44-16.35
		c-6.93-2.64-14.26-4.31-21.49-6.05c-2.84-0.69-5.92-0.4-9-0.57c0.14,0.8,0.11,0.99,0.19,1.08c21.62,26.22,43.23,52.44,64.93,78.59
		c0.9,1.09,2.63,1.96,4.04,2.06C209.07,229.3,213.13,229.12,218.19,229.12z M365.33,147.25c-12.69,0.14-23.68,2.71-34.13,7.92
		c-6.41,3.2-11.37,7.48-14.94,13.99c-10.08,18.37-20.72,36.42-31.14,54.6c-0.86,1.5-1.66,3.04-2.92,5.37c2.59,0,4.36-0.23,6.06,0.04
		c6.79,1.07,11.22-1.69,15.52-7.08c16.12-20.2,32.8-39.96,49.26-59.89C356.92,157.5,360.79,152.77,365.33,147.25z"/>
	<path d="M216.84,420.26c0-11.2-0.19-22.22,0.04-33.22c0.52-24.63,26.44-40.32,48.29-29.1c11.83,6.07,18.12,16.13,18.22,29.52
		c0.17,22.3,0.18,44.59,0,66.89c-0.12,14.01-6.75,24.38-19.42,30.2c-12.5,5.74-24.4,3.82-35.19-4.75c-0.64-0.51-1.26-1.02-1.91-1.52
		c-0.12-0.09-0.3-0.1-0.89-0.28c-7.85,11.17-18.85,17.39-32.65,18.02c-10.08,0.46-19.28-2.61-27.26-8.87
		c-16.48-12.94-20.74-35.89-10.08-54C168.05,412.69,188.86,408.17,216.84,420.26z M233.52,429.5c0,9.03-0.27,17.49,0.08,25.92
		c0.34,8.2,7.03,14.8,14.92,15.48c8.39,0.72,16.86-4.58,17.67-12.68c0.95-9.42,0.22-19.01,0.22-28.72
		C255.41,429.5,244.74,429.5,233.52,429.5z M266.76,412.32c0-8.65,0.15-16.91-0.04-25.15c-0.2-8.78-6.75-15.52-15.2-16.05
		c-8.91-0.56-16.87,5.08-17.65,13.87c-0.79,8.97-0.18,18.06-0.18,27.33C244.7,412.32,255.36,412.32,266.76,412.32z M210.23,470.32
		c7.24-6.84,8.64-18.56,3.54-27.92c-5.12-9.41-15.78-14.57-25.68-11.97C195.5,443.79,202.84,457.02,210.23,470.32z M195.73,478.58
		c-7.58-13.63-14.93-26.85-22.39-40.27c-7.25,7.97-8.42,19.05-3.4,28.12C174.92,475.45,184.89,480.36,195.73,478.58z"/>
	<path d="M473.04,373.5c3.78-13.13,7.31-25.38,10.98-38.11c5.39,1.52,10.46,2.95,15.98,4.5c-4.58,16.09-9.05,31.81-13.5,47.45
		c7.34,6.92,7.38,10.2,0.31,17.28c-5.63,5.64-11.41,11.14-16.82,16.99c-1.57,1.7-2.73,4.33-2.94,6.63c-0.59,6.46-3.28,9.41-9.9,9.41
		c-32.38,0.04-64.75,0.04-97.13,0c-6.56-0.01-9.16-2.92-9.82-9.49c-0.23-2.32-1.41-4.95-3-6.65c-5.88-6.3-12.07-12.31-18.22-18.35
		c-2.71-2.67-4.64-5.57-3.37-9.51c1.23-3.8,4.06-5.3,7.96-6.18c1.72-0.39,3.49-3.34,4.1-5.45c4.07-14.07,13.35-22.79,27.14-26.83
		c4.33-1.27,9-1.37,13.41-2.43c2.42-0.59,4.98-1.64,6.88-3.21c12.91-10.72,27.86-13.53,43.96-11.33
		c6.76,0.92,11.66,5.03,15.55,10.76c1.62,2.38,4.83,3.72,7.4,5.41c2.24,1.47,4.95,2.4,6.83,4.22
		C463.59,363.2,467.99,368.15,473.04,373.5z M354.19,387.31c35.61,0,71.23,0,108.14,0c-5.66-6.75-9.8-13.65-16.96-16.93
		c-6.14-2.81-11.33-6.01-14.86-11.91c-1.03-1.72-3.27-3.58-5.13-3.79c-11.19-1.25-21.59,0.55-30.5,8.36
		c-2.81,2.46-6.57,4.12-10.16,5.32c-3.65,1.22-7.62,1.55-11.47,2.05C362.54,371.83,355.41,378.11,354.19,387.31z M462.46,404.83
		c-36.03,0-71.75,0-108.92,0c3.5,3.21,6.19,5.35,8.48,7.87c2.24,2.46,4.06,5.29,6.25,8.21c26.88,0,54.21,0,80.03,0
		C453.44,415.07,457.85,410.06,462.46,404.83z"/>
	<path d="M389.25,273.22c-4.06,3.85-7.9,7.5-12.09,11.48c-14.16-14.53-32.69-14.72-51.66-13.64c0-5.79,0-10.93,0-16.43
		C349.09,252.44,371.22,255.23,389.25,273.22z"/>
	<path d="M111.37,273.46c11.72-14.46,35.63-21.65,63.26-18.92c0,5.19,0,10.43,0,16.37c-18.67-0.73-37.32-0.82-51.66,14.06
		C118.89,280.92,115.13,277.18,111.37,273.46z"/>
	<path d="M100.35,312.29c0-5.34,0-10.58,0-16.07c5.38,0,10.5,0,16.03,0c0,5.28,0,10.5,0,16.07
		C111.11,312.29,105.89,312.29,100.35,312.29z"/>
	<path d="M384.08,296.19c5.41,0,10.54,0,15.96,0c0,5.45,0,10.68,0,16.18c-5.33,0-10.45,0-15.96,0
		C384.08,307.13,384.08,301.9,384.08,296.19z"/>
	<path d="M74.87,337.9c0,5.39,0,10.54,0,16.47c-6.14,0-12.26,0.03-18.38-0.01c-3.1-0.02-6.39,0.14-6.31,4.18
		c0.08,3.97,3.37,4.1,6.47,4.07c2.92-0.03,5.89-0.19,8.76,0.23c10.28,1.51,17.62,9.88,17.85,20.05
		c0.24,10.54-6.62,19.58-17.24,20.88c-7.79,0.95-15.79,0.19-23.97,0.19c0-5.26,0-10.39,0-16.24c5.19,0,10.33,0,15.46,0
		c1.63,0,3.56,0.51,4.8-0.19c1.68-0.96,3.61-2.71,3.92-4.4c0.18-1.02-2.34-3.35-3.95-3.69c-2.96-0.63-6.15-0.13-9.23-0.28
		c-10.68-0.5-19.2-9.12-19.72-19.86c-0.51-10.56,7.42-20.39,18.03-21.28C59.07,337.38,66.87,337.9,74.87,337.9z"/>
	<path d="M274.98,287.55c-5.51,0-10.66,0-16.29,0c0,5.58,0,10.71,0,16.22c-5.73,0-10.97,0-16.72,0c0-5.27,0-10.41,0-16.19
		c-5.73,0-10.98,0-16.49,0c0-5.8,0-10.93,0-16.7c5.39,0,10.65,0,16.36,0c0-5.77,0-10.91,0-16.39c5.71,0,10.96,0,16.66,0
		c0,5.34,0,10.49,0,16.23c5.68,0,10.95,0,16.49,0C274.98,276.46,274.98,281.58,274.98,287.55z"/>
</g>
</svg>
