<?xml version="1.0" encoding="utf-8"?>
<!-- Generator: Adobe Illustrator 26.5.0, SVG Export Plug-In . SVG Version: 6.00 Build 0)  -->
<svg version="1.1" id="Layer_1" xmlns="http://www.w3.org/2000/svg" xmlns:xlink="http://www.w3.org/1999/xlink" x="0px" y="0px"
	 viewBox="0 0 500 500" style="enable-background:new 0 0 500 500;" xml:space="preserve">
<g>
	<path d="M492.28,339.96c6.45,7.62,7.77,16.2,7.72,25.44c-0.21,33.94-0.06,67.89-0.09,101.84c-0.02,19.83-12.96,32.71-32.9,32.7
		c-144.73-0.05-289.46-0.11-434.2-0.19c-20.39-0.01-32.7-12.3-32.72-32.65C0.06,433.36,0.21,399.62,0,365.89
		c-0.06-9.44,1.21-18.24,7.89-25.98c-7.34-8.15-7.96-17.92-7.89-28.12c0.22-32.49,0.25-64.98,0-97.46
		c-0.11-13.96,4.74-24.59,17.31-31.45c1.55-0.84,2.61-3.92,2.64-5.98c0.22-14.99,0.08-29.99,0.13-44.98
		c0.1-31.2,16.73-55.78,45.68-67.24c3.21-1.27,4.48-2.75,4.39-6.27c-0.25-9.16-0.17-18.33-0.06-27.49
		C70.3,12.99,82.97,0.35,100.9,0.13c6.25-0.08,12.5-0.11,18.74,0.01c17.16,0.35,29.79,13.01,30.09,30.23
		c0.16,9.16,0.16,18.33-0.03,27.49c-0.07,3.54,0.93,5.24,4.41,6.93c8.71,4.22,16.98,9.34,25.5,14.14c0.44-5.85,0.59-12.78,1.55-19.6
		c4.78-33.72,34.2-59.05,68.47-59.2c34.48-0.15,64.37,25.24,68.93,59.29c1.35,10.05,1.02,20.34,1.14,30.52
		c0.17,13.91,0.04,27.82,0.04,43.59c16.21-18.33,35.05-29.13,57.78-32.52c-1.4-10.31-12.31-19.71-24.17-21.07
		c-1.24-0.14-2.5-0.05-3.74-0.21c-5.86-0.72-9.85-5.12-9.48-10.4c0.37-5.36,4.69-9.31,10.69-9.15c10.92,0.29,20.8,3.76,29.43,10.55
		c1.94,1.53,3.81,3.15,6.19,5.13c0.97-1.82,1.8-3.35,2.6-4.9c15.82-30.55,40.95-47.38,75.1-50.64c12.68-1.21,16.73,3.43,15.29,16.69
		c-3.3,30.56-17.81,54.09-44.08,70.24c-1.17,0.72-2.28,1.54-3.96,2.69c2.05,1.36,3.52,2.38,5.03,3.33
		c23.7,15.01,37.82,36.28,42.34,64.02c0.36,2.19,2.31,4.83,4.26,5.92c11.27,6.33,16.67,15.84,16.7,28.61
		c0.07,34.57,0.02,69.14,0.27,103.71C500.06,324.42,498.36,332.48,492.28,339.96z M250.53,199.79c-72.46,0-144.91-0.01-217.37,0.01
		c-10.16,0-13.37,3.24-13.37,13.48c-0.02,33.73-0.01,67.46-0.01,101.19c0,13.13,2.48,15.6,15.65,15.6
		c143.04-0.06,286.08-0.13,429.11-0.19c0.62,0,1.25,0,1.87,0c10.15-0.06,13.38-3.28,13.4-13.52c0.08-33.94,0.14-67.87,0.19-101.81
		c0.02-11.94-2.79-14.76-14.62-14.76C393.78,199.79,322.16,199.79,250.53,199.79z M249.63,349.78c-72.04,0-144.09,0-216.13,0
		c-10.6,0-13.7,3.13-13.71,13.78c-0.01,33.94-0.01,67.88,0,101.82c0,11.87,2.81,14.68,14.7,14.67
		c85.58-0.06,171.15-0.14,256.73-0.18c58.3-0.03,116.6,0,174.9-0.01c10.59,0,13.91-3.27,13.9-13.67
		c-0.04-33.94-0.12-67.88-0.18-101.82c-0.02-12-2.63-14.59-14.71-14.59C393.29,349.77,321.46,349.78,249.63,349.78z M299.58,90.11
		c0-9.6,1.08-18.65-0.2-27.35c-3.95-26.92-27.23-44.95-54.07-42.81c-25.64,2.04-45.44,23.96-45.52,50.68
		c-0.11,34.55-0.03,69.11-0.01,103.66c0,1.8,0.24,3.59,0.37,5.4c33.45,0,66.43,0,99.5,0c0-10.07,0-19.73,0-29.89
		c-2.22,0-4.06,0-5.9,0c-14.15,0-28.31,0.08-42.46-0.04c-6.83-0.06-11.28-4.24-11.16-10c0.12-5.56,4.4-9.42,10.9-9.63
		c3.74-0.13,7.49-0.03,11.24-0.03c12.42,0,24.83,0,37.4,0c0-7.09,0-13.42,0-20.3c-15.94,0-31.5,0.03-47.07-0.01
		c-7.88-0.02-12.56-3.83-12.47-9.96c0.09-6.15,4.65-9.7,12.71-9.72C268.22,90.08,283.62,90.11,299.58,90.11z M179.97,139.86
		c0-4.79,0.2-9.12-0.03-13.43c-1.33-24.63-22.5-45.74-47.11-46.47c-15.38-0.46-30.8-0.55-46.18,0.03
		c-29.6,1.12-52.33,30.88-45.97,59.87C86.76,139.86,132.89,139.86,179.97,139.86z M458.41,179.8
		c-0.53-23.35-25.41-60.22-69.17-59.98c-34.38,0.19-68.89,30.58-67.83,59.98C367.07,179.8,412.74,179.8,458.41,179.8z
		 M179.84,160.23c-46.98,0-93.3,0-139.62,0c0,6.77,0,13.1,0,19.43c46.76,0,93.08,0,139.62,0
		C179.84,173.04,179.84,166.86,179.84,160.23z M130.01,59.88c0-10.58,0.26-20.55-0.1-30.49c-0.21-5.75-3.87-9.21-9.67-9.46
		c-6.86-0.3-13.74-0.22-20.61-0.02c-5.23,0.15-9.22,3.15-9.51,8.19c-0.59,10.5-0.18,21.05-0.18,31.79
		C103.48,59.88,116.32,59.88,130.01,59.88z M458.28,41.6c-26.54,1.02-56.23,30.62-56.59,56.94C427.68,97.38,458.5,66.38,458.28,41.6
		z"/>
	<path d="M434.87,279.9c10.16-0.01,14.87,3.1,14.98,9.87c0.12,6.94-4.79,10.21-15.28,10.2c-1.45,0-2.9,0.06-4.35-0.04
		c-6.25-0.41-10.41-4.53-10.32-10.16c0.09-5.62,4.28-9.53,10.62-9.86C431.97,279.84,433.42,279.9,434.87,279.9z"/>
	<path d="M64.55,249.72c-1.66,0-3.35,0.15-4.99-0.03c-5.56-0.6-9.45-4.72-9.41-9.83c0.04-5.12,3.94-9.23,9.53-9.69
		c3.1-0.26,6.24-0.19,9.36-0.06c6.41,0.27,10.7,4.3,10.66,9.87c-0.04,5.54-4.35,9.47-10.78,9.78c-1.45,0.07-2.91,0.01-4.37,0.01
		C64.55,249.76,64.55,249.74,64.55,249.72z"/>
	<path d="M434.89,230.09c9.8,0,14.55,3.07,14.77,9.54c0.23,6.73-4.76,10.16-14.79,10.16c-9.79,0-14.54-3.08-14.76-9.56
		C419.87,233.49,424.83,230.09,434.89,230.09z"/>
	<path d="M65.02,299.78c-10.11,0-15.04-3.33-14.88-10.07c0.16-6.52,4.9-9.63,14.67-9.63c10.13,0,15.05,3.32,14.88,10.05
		C79.55,296.64,74.76,299.78,65.02,299.78z"/>
	<path d="M434.35,449.84c-1.87,0-3.79,0.27-5.61-0.05c-5.38-0.95-8.67-4.21-8.76-9.74c-0.08-5.53,3.08-9.16,8.48-9.91
		c4.07-0.57,8.35-0.42,12.45,0.07c5.51,0.67,9.23,5.31,8.94,10.28c-0.3,5.16-4.23,8.95-9.88,9.41c-1.86,0.15-3.74,0.02-5.62,0.02
		C434.35,449.89,434.35,449.87,434.35,449.84z"/>
	<path d="M434.95,379.89c1.46,0.01,2.92-0.07,4.37,0.02c6.06,0.36,10.51,4.82,10.34,10.29c-0.17,5.33-4.31,9.2-10.38,9.53
		c-2.7,0.15-5.41,0.12-8.11,0.02c-6.78-0.24-11.33-4.3-11.26-9.97c0.08-5.85,4.43-9.67,11.3-9.89
		C432.45,379.85,433.7,379.88,434.95,379.89z"/>
	<path d="M64.85,399.77c-9.77,0-14.53-3.12-14.7-9.61c-0.18-6.74,4.74-10.09,14.85-10.09c9.76,0,14.53,3.11,14.71,9.6
		C79.89,396.4,74.92,399.77,64.85,399.77z"/>
	<path d="M64.69,449.74c-1.46-0.01-2.92,0.08-4.37-0.02c-6-0.42-10.12-4.4-10.17-9.74c-0.05-5.34,4.05-9.48,10.01-9.87
		c2.9-0.19,5.83-0.14,8.74-0.03c6.45,0.25,10.75,4.18,10.8,9.74c0.05,5.54-4.26,9.58-10.64,9.91
		C67.61,449.81,66.15,449.75,64.69,449.74z"/>
</g>
</svg>
