<?xml version="1.0" encoding="utf-8"?>
<!-- Generator: Adobe Illustrator 26.5.0, SVG Export Plug-In . SVG Version: 6.00 Build 0)  -->
<svg version="1.1" id="Layer_1" xmlns="http://www.w3.org/2000/svg" xmlns:xlink="http://www.w3.org/1999/xlink" x="0px" y="0px"
	 viewBox="0 0 500 500" style="enable-background:new 0 0 500 500;" xml:space="preserve">
<g>
	<path d="M496.11,249.65c-4.41-5.58-8.83-11.16-13.25-16.73c-13.48-17.02-27.42-34.63-41.02-52.02c-2.77-3.55-5.91-5.27-9.59-5.27
		c-1.8,0-3.64,0.41-5.81,1.28c-11.7,4.71-23.48,9.45-35.24,14.17c0.18-0.43,0.35-0.88,0.51-1.37c2.46-7.56,2.57-14.91,0.32-21.85
		c-4.44-13.68-14.49-23.38-29.86-28.83c2.07-11.95-2.46-22.27-13.12-29.86c-3.12-2.22-6.56-3.76-9.88-5.24
		c-0.18-0.08-0.36-0.16-0.53-0.24c2.74-6.89,8.75-10.62,17.26-10.62c0.17,0,0.34,0,0.52,0c0.36,0.01,0.72,0.01,1.08,0.01
		c8.68,0,10.23-5.48,10.39-8.75c0.41-8.8-7.76-9.52-10.44-9.75l-0.15-0.01c-0.97-0.08-1.96-0.13-2.93-0.13
		c-16.02,0-30.46,11.28-34.32,26.83c-0.12,0.5-0.24,0.76-0.29,0.87c-0.14,0.06-0.48,0.19-1.24,0.35c-4.68,0.95-8.92,2.42-12.6,4.37
		c-1.5,0.79-2.87,1.71-4.15,2.65c-0.61-1.82-1.21-3.64-1.81-5.43c-3.07-9.27-6.25-18.86-9.92-28.17
		c-5.96-15.12-13.64-26.62-23.47-35.16c-7.26-6.3-15.33-9.63-23.33-9.63c-8.19,0-16.24,3.48-23.27,10.06
		c-5.99,5.61-11.19,12.14-15.06,18.9c-3.47,6.08-6.28,12.51-8.99,18.73c-1.34,3.07-2.72,6.24-4.15,9.28
		c-5.72,0.09-11.31,0.11-16.09,0.11c-2.17,0-4.36,0-6.56-0.01l0.45-1.13c5.13-12.75,10.43-25.94,15.7-38.88
		c0.65-1.61,2.19-5.37,0.62-9c-0.65-1.5-2.1-3.56-5.31-4.8c-1.22-0.47-2.43-0.71-3.59-0.71c-5.91,0-8.16,5.59-8.9,7.43
		c-0.87,2.16-1.74,4.31-2.6,6.47l0-14.41c0-10.23-4.8-12.38-8.82-12.38c-0.32,0-0.66,0.02-1.01,0.05c-8.79,0.83-8.72,8.86-8.7,11.5
		l0,0.65c0,0,0,10.52,0,15.47c-1.83-2.63-4.22-3.96-7.14-3.96c-1.27,0-2.58,0.28-3.9,0.84c-2.55,1.08-8.07,4.56-4.39,13.52
		c2.58,6.26,5.31,13.01,8.87,21.86c0.98,2.45,1.95,4.9,2.95,7.44c-2.02,0-11.37-0.01-14.04-0.01c-4.14,0-8.29,0.01-12.43,0.03
		c-1.38,0.01-5.58,0.03-8.29,3.24c-2.73,3.23-2.04,7.43-1.81,8.81l3.63,22.14c3.26,19.84,6.63,40.35,9.89,60.53
		c1.31,8.09,6.28,9.3,9.13,9.3c0.55,0,1.12-0.05,1.7-0.13c3.29-0.51,5.1-2.17,6.05-3.47c2.03-2.82,1.8-6.13,1.36-8.7
		c-1.08-6.41-2.14-12.87-3.21-19.42c1.15,0.53,2.61,0.92,4.45,0.93c1.27,0.01,2.55,0.01,3.82,0.01c1.19,0,6.17-0.01,6.17-0.01
		s5.02,0.01,5.93,0.01c1.36,0,2.73-0.01,4.09-0.03c3.65-0.06,5.83-1.56,7.02-2.81c1.14-1.19,2.47-3.31,2.36-6.63
		c-0.18-5.33-4.06-8.92-9.68-8.92l-7.06,0.01c-3.03,0.01-6.06,0.01-9.09,0.01l-3.33,0c-2.91,0-5.35,0.97-7.04,2.65
		c-0.4-2.53-0.8-5.09-1.21-7.68l-0.07-0.43h0.52c0,0,11.12,0,13.72,0c1.75,0,5.86-0.01,8.63-2.9c1.15-1.2,2.48-3.35,2.34-6.81
		c-0.13-3.32-1.72-8.89-10.86-8.89h-0.16c-2.97,0.01-5.93,0.02-8.93,0.02l-8.34,0l-1.98-12.22h59.36
		c-6.45,23.86-9.9,49.1-10.55,77.06c-0.09,3.86,0.19,8.19,2.94,11.01c1.06,1.08,2.93,2.37,5.84,2.37c0.36,0,0.74-0.02,1.12-0.06
		c8.93-0.97,8.8-9.05,8.75-11.71c-0.01-0.39-0.01-0.78-0.01-1.15c0.53-35.25,6.15-66.44,17.19-95.35
		c4.11-10.76,9.61-23.05,19.22-32.62c4.49-4.47,8.88-6.73,13.04-6.73c4.09,0,8.24,2.23,12.33,6.63c5.27,5.67,9.96,12.42,13.55,19.52
		c4.2,8.3,7.77,17.08,10.8,26.5c-0.69-0.12-1.43-0.2-2.25-0.2c-12.83,0.03-29.63,0.9-45.79,7.34c-5.26,2.1-10.13,5.08-14.08,8.62
		c-3.83,3.43-5.93,7.9-5.93,12.57c0,4.72,2.13,9.23,6.01,12.72c3.72,3.34,8.3,6.2,13.24,8.27c12.66,5.31,26.15,6.88,38.84,7.78
		l0.18,0.01h0.18c0.71,0,1.42,0.03,2.13,0.07c0.83,0.04,1.69,0.08,2.58,0.08c1.6,0,2.93-0.13,4.19-0.4
		c3.31-0.72,6.11-3.41,7.43-5.76c1.86-3.33,0.04-8.38-2.71-10.35c-2.41-1.73-5.29-2.04-7.39-2.26c-2.99-0.32-6.02-0.55-8.94-0.78
		c-6.04-0.46-11.74-0.9-17.3-2.07c-5.65-1.19-11.88-3.57-19.05-7.3h0c0.11-0.08,0.23-0.15,0.36-0.24c3.28-2.07,7.02-3.82,10.82-5.06
		c9.91-3.24,20.99-4.76,34.87-4.79c2.87-0.01,5.29-0.83,7.05-2.29c3.14,13.15,5.39,27.53,6.83,43.54c0.5,5.6,0.7,11.39,0.89,16.98
		c0.1,2.92,0.2,5.95,0.35,8.93c0.28,5.77,3.89,9.5,9.19,9.5c0.2,0,0.39,0,0.6-0.02c5.26-0.27,8.7-4.09,8.78-9.73l0.01-0.47
		c0.02-0.58,0.03-1.3-0.03-2.08c-0.37-4.42-0.71-8.83-1.06-13.25c-0.84-10.73-1.71-21.83-2.91-32.74
		c-0.88-7.93,1.79-13.16,8.41-16.46c3.01-1.5,6.16-2.23,9.62-2.23c1.72,0,3.54,0.19,5.4,0.56c4.97,0.99,9.3,3.77,11.59,7.43
		c1.86,2.98,2.3,6.4,1.32,10.16c-1.83,6.96,2.42,14.13,10.32,17.44l1.34,0.56c3.65,1.52,7.1,2.95,9.98,4.93
		c8.37,5.74,11.45,13.89,8.69,22.94c-0.38,1.25-1.55,5.07,0.33,8.55c0.62,1.14,1.76,2.56,3.81,3.58
		c-13.96,5.61-27.87,11.18-41.55,16.67c-28.13,11.28-56.25,22.57-84.37,33.88c-0.81,0.32-1.47,0.48-2.1,0.48
		c-0.68,0-1.46-0.18-2.43-0.58c-49.82-20.04-100.5-40.33-149.52-59.95l-24.4-9.77c-2.59-1.04-4.58-1.77-6.68-1.77
		c-4.35,0-6.81,3.1-9.18,6.1c-11.78,14.89-23.55,29.78-35.32,44.67L3.81,249.8c-2.32,2.93-4.56,6.47-3.57,10.44
		c0.99,3.96,4.6,6.01,8,7.5l10.05,4.39c12.9,5.64,26.24,11.48,39.41,17.11c0.08,0.04,0.16,0.07,0.22,0.1c0,0.05,0,0.1,0,0.16
		c-0.09,11.08-0.08,22.32-0.07,33.2c0,2.1,0,4.2,0.01,6.3h-0.01v4.99c0,3.98,0.01,7.97,0.03,11.95c0.04,9.95,0.08,20.24-0.13,30.32
		c-0.14,6.8,2.53,11.16,8.64,14.16c32.3,15.83,65.12,31.99,96.85,47.62c26.79,13.19,54.48,26.83,81.74,40.21
		c1.32,0.65,2.87,0.98,4.6,0.98c1.41,0,2.97-0.22,4.65-0.64c1.9-0.48,3.43-1.43,4.66-2.2c0.52-0.32,1.02-0.63,1.43-0.84l22.4-11.02
		c49.6-24.41,100.89-49.64,151.39-74.35c5.61-2.75,8.21-6.92,8.18-13.14c-0.08-15.15-0.08-30.55-0.09-45.45
		c0-13.56-0.01-27.57-0.07-41.37c0-0.49,0.03-0.77,0.06-0.92c0.11-0.07,0.32-0.19,0.68-0.34c12.5-5.33,25.16-10.85,37.4-16.19
		c3.77-1.65,7.55-3.29,11.33-4.94c3.48-1.51,7.17-3.6,8.17-7.59C500.76,256.24,498.48,252.64,496.11,249.65z M259.39,289.16
		l19.57,29.98c2.04,3.13,4.08,6.26,6.12,9.4c3.09,4.75,6.19,9.5,9.29,14.25c1.61,2.45,4.03,6.17,8.82,6.17
		c1.99,0,3.93-0.67,6.23-1.67c20.21-8.81,113.51-49.51,113.51-49.51l0,14.65c-0.01,20-0.02,40.68,0.07,61.02
		c0,0.39-0.02,0.63-0.04,0.76c-0.11,0.08-0.31,0.21-0.67,0.38c-42.73,20.93-86.15,42.28-128.13,62.93l-34.74,17.08V289.16z
		 M475.07,254.06l-167.85,73.25l-42.33-64.89c0,0,164.69-65.99,164.75-66.01c11.79,15.07,23.83,30.31,35.48,45.06
		C468.44,245.66,471.75,249.86,475.07,254.06z M70.52,196.35c45.38,18.28,91.53,36.79,136.16,54.69l28.45,11.41l-42.29,64.85
		L24.94,254.05L46,227.44C54.05,217.26,62.38,206.75,70.52,196.35z M77.04,312.56c0-4.95,0-9.89,0-14.84
		c16.52,7.2,33.03,14.41,49.55,21.61c21.15,9.23,42.3,18.46,63.46,27.68c2.44,1.06,4.65,1.95,6.88,1.95c4.72,0,7.14-3.71,9.08-6.69
		c0,0,27.62-42.32,33.86-51.88V454.2l-56.62-27.83c-35.26-17.33-70.52-34.66-105.79-51.98c-0.21-0.1-0.37-0.18-0.5-0.25
		C77.05,353.61,77.04,332.75,77.04,312.56z"/>
	<path d="M226.1,197.49c0.52-0.37,1.3-0.94,1.61-1.04c1.92-0.61,3.85-1.25,5.72-1.88c5.03-1.69,9.78-3.29,14.62-4.15
		c5.36-0.96,10.84-1.26,16.63-1.57c2.21-0.12,4.5-0.25,6.77-0.41c7.13-0.52,9.66-5.18,9.65-9.37c-0.02-5.5-4.02-9.24-9.96-9.31
		c-0.99-0.01-1.98-0.02-2.97-0.02l-4.75,0.01l-0.19,0.02c-12.57,0.98-25.89,2.39-38.42,7.79c-5.21,2.25-10.2,5.53-14.42,9.48
		c-6.28,5.89-6.63,15.33-0.82,21.95c3.22,3.67,7.22,6.76,11.27,8.72c16.56,7.98,34.11,9.23,50.62,9.39h0.12
		c2.78,0,5.27-0.97,6.99-2.72c1.68-1.71,2.55-3.99,2.5-6.59c-0.08-5.18-3.74-8.75-9.33-9.11c-1.68-0.11-3.36-0.21-5.04-0.3
		c-5.6-0.33-11.38-0.66-16.93-1.4c-7.61-1.01-16.39-2.69-23.78-7.49c-0.57-0.37-0.98-0.67-1.27-0.92c0.27-0.25,0.66-0.57,1.19-0.95
		L226.1,197.49z"/>
	<path d="M356.03,187.91c1.64,0.19,4.31-1.19,5.11-2.64c1.35-2.43,1.58-5.48,2.27-8.27c-0.47-10.65-9.39-19.52-19.78-19.36
		c-2.67,0.04-5.1,1.04-4.73,3.89c0.21,1.66,2.17,4.08,3.73,4.43c10.64,2.37,13.25,6.13,10.67,16.49
		C352.62,185.15,353.31,187.6,356.03,187.91z"/>
</g>
</svg>
