<?xml version="1.0" encoding="utf-8"?>
<!-- Generator: Adobe Illustrator 26.5.0, SVG Export Plug-In . SVG Version: 6.00 Build 0)  -->
<svg version="1.1" id="Layer_1" xmlns="http://www.w3.org/2000/svg" xmlns:xlink="http://www.w3.org/1999/xlink" x="0px" y="0px"
	 viewBox="0 0 500 500" style="enable-background:new 0 0 500 500;" xml:space="preserve">
<g>
	<path d="M490.76,215.84c-22.26-16.86-48.15-36.46-73.66-55.63c-0.19-0.14-0.36-0.28-0.53-0.43l-0.11-0.1l-25.78-19.51
		c-1.12-0.84-2.23-1.68-3.34-2.52c-4.55-3.44-9.09-6.88-13.64-10.33l-6.71-5.08l-3.79-2.86c-6.26-4.74-12.98-9.82-19.62-14.79
		c-0.12-0.09-0.33-0.25-0.43-0.34l-0.16-0.15l-53.34-40.36c-6.12-4.63-12.25-9.25-18.37-13.86c-6.52-4.91-13.89-7.51-21.33-7.51
		c-7.41,0-14.76,2.58-21.27,7.46c-10.41,7.81-20.96,15.8-31.15,23.53c-4.49,3.4-8.98,6.8-13.47,10.2l-29.96,22.66
		c-26.46,20.02-52.92,40.03-79.39,60.05l-12.23,9.25c-17.51,13.24-35.01,26.49-52.54,39.71c-3.43,2.59-7.58,6.35-9.17,12.52
		c-1.78,6.87-0.51,13.89,3.49,19.24c3.96,5.3,10.24,8.47,17.24,8.71c2.71,0.1,5.63,0.14,9.17,0.14c0.63,0,2.04,0,2.04,0
		c1.92-0.01,3.85-0.02,5.8-0.04c1.17-0.01,2.35-0.02,3.54-0.03v0.07h6.46c2.33,0,4.63-0.77,6.48-2.17l6.34-4.8l0.17-0.16
		c0.06-0.06,0.13-0.11,0.2-0.16c10.28-7.76,20.56-15.53,30.83-23.3l14.19-10.72l19.04-14.4c38.41-29.05,76.81-58.11,115.21-87.18
		l0.75-0.57c3.55-2.69,6.09-3.89,8.21-3.89c2.11,0,4.6,1.17,8.07,3.8c47.43,35.87,94.85,71.76,142.27,107.66l17.3,13.09
		c2.01,1.52,4.02,3.03,6.03,4.54c4.78,3.58,9.71,7.28,14.49,11.06l5.08,3.85c2.84,2.16,6.37,3.34,9.94,3.34l24.83,0
		c10.14-0.28,17.75-5.81,20.87-15.19C501.9,231.43,498.8,221.93,490.76,215.84z M472.43,237.14l-3.42,0c-1.43,0-2.98-0.01-4.72-0.01
		c-0.48,0-0.95,0.07-1.34,0.18c-0.93,0.25-1.84,0.37-2.79,0.37c-4.53,0-9.3-2.93-15.06-7.32c-44.11-33.61-89.08-67.6-132.57-100.48
		c-14.62-11.05-29.24-22.1-43.85-33.16c-6.16-4.66-12.45-7.02-18.7-7.02c-6.22,0-12.48,2.35-18.6,6.97l-4.65,3.51
		C168.8,143.97,108.9,189.26,50.06,233.9c-3.15,2.39-5.62,3.36-8.52,3.36c-0.32,0-0.65-0.01-0.98-0.04c-1.91-0.14-3.95-0.2-6.42-0.2
		c-1.58,0-3.16,0.03-4.74,0.05c-1.54,0.03-3.08,0.05-4.61,0.05c-0.44,0-0.87,0-1.31-0.01c-3.72-0.04-4.11-1.21-4.46-2.24
		c-0.45-1.34-0.74-2.23,2.39-4.6l37.72-28.56c29.59-22.4,59.17-44.81,88.77-67.2c33.35-25.25,63.4-47.98,91.88-69.48
		c3.42-2.58,6.83-3.89,10.15-3.89c3.37,0,6.86,1.35,10.37,4c42.7,32.3,85.4,64.61,128.1,96.92l66.39,50.23
		c3.06,2.31,6.12,4.63,9.19,6.94c5,3.77,10,7.54,14.98,11.33c2.67,2.03,2.37,3.01,1.98,4.23c-0.27,0.85-0.72,2.27-4.34,2.31
		C475.23,237.14,473.88,237.14,472.43,237.14z"/>
	<path d="M296.58,363c9.5-6.16,17.08-12.79,23.18-20.27c19.23-23.58,24.83-49.43,16.64-76.85c-7.15-23.94-23.27-42.57-47.92-55.4
		c-0.2-0.1-0.34-0.19-0.45-0.25c0.01-0.12,0.02-0.28,0.05-0.48c1.35-10.08-0.22-19.69-4.65-28.55
		c-8.75-17.49-26.07-28.36-45.19-28.36c-3.58,0-7.18,0.39-10.71,1.15c-23.23,5.04-39.27,24.63-39.91,48.74
		c-0.04,1.45,0.14,2.87,0.31,4.23c0.14,1.1,0.36,2.94,0.17,3.52c-0.42,0.59-2.27,1.4-3.5,1.93c-1.33,0.58-2.71,1.18-4.02,2.02
		c-28.33,17.97-43.3,42.79-44.5,73.78l-0.01,0.13l0,0.13c0.3,10.71,1.79,19.69,4.69,28.28c0.86,2.55,1.38,5.32,1.51,8.04
		c0.58,12.51,1.64,25.87,5.42,38.89c4.93,16.99,12.64,28.75,24.28,37.02c9.43,6.69,20.22,10.35,31.2,10.57
		c4.68,0.09,6.33,1.36,8.81,6.78c3.64,7.94,8.51,15.29,13.22,22.41l0.61,0.92c3.63,5.48,10.53,8.76,18.46,8.76
		c7.66,0,14.4-3.08,18.03-8.24c0.59-0.84,1.19-1.68,1.78-2.52c3.21-4.51,6.52-9.17,9.16-14.23c10.56-20.22,16.99-41.79,21.88-60.22
		C295.29,364.3,295.98,363.39,296.58,363z M281.7,309.12c-0.83,2.32-2.17,4.58-3.78,6.35c-5.4,5.95-12.44,9.27-19.15,11.56
		l-0.12-0.47c-1.49-5.59-2.92-10.95-4.34-16.35c4.03-9.53,8.37-13.62,14.42-13.62c2.25,0,4.84,0.55,7.72,1.63
		C281.34,300.08,283.4,304.36,281.7,309.12z M239.67,328.11c-9.62-0.54-19.89-2.63-28.14-10.15c-4.79-4.36-6.38-8.92-4.86-13.92
		c0.46-1.51,1.72-3.29,3.15-4.41c2.62-2.07,5.67-3.16,8.81-3.16c4.3,0,8.34,2.08,11.08,5.71c5.26,6.96,7.36,15.38,9.58,24.29
		C239.42,327,239.55,327.54,239.67,328.11z M273.11,373.64c-2.67,8.94-5.72,18.06-9.53,27.05c0.25-8.8,0.38-16.51,0.4-23.8
		c0-0.36,0.02-0.61,0.04-0.78c0.12-0.04,0.29-0.09,0.51-0.14C267.41,375.29,270.22,374.5,273.11,373.64z M297.95,319.31
		c3.91-7.96,4.16-16.87,0.68-24.45c-3.48-7.59-10.41-13.23-19.01-15.46c-4.09-1.06-7.76-1.58-11.22-1.58
		c-9.5,0-17.23,3.94-24.11,12.35c-0.07-0.09-0.13-0.18-0.2-0.27c-5.78-7.79-14.58-12.08-24.77-12.08
		c-13.78,0-26.46,7.92-30.15,18.82c-3.91,11.54-1.66,22.35,6.69,32.13c7.79,9.12,18.47,14.65,32.66,16.88
		c6.57,1.04,13.24,1.14,20.06,1.17c2.92,0.01,7.92,0.86,8.57,6.43c0.48,4.07-2.18,7.13-6.76,7.8c-4.12,0.6-8.37,0.91-12.62,0.91
		c-33.07,0-62.97-17.35-76.18-44.19c-12.24-24.87-7.14-54.18,12.97-74.65c5.94-6.04,12.37-10.9,19.59-14.77
		c10.27,16.82,25.04,25.34,43.96,25.34h0.12c18.79-0.03,33.49-8.52,43.74-25.23c18.68,9.46,42.47,33.9,38.85,68.12
		c-2.32,21.93-25.4,50.15-44.83,56.4c-0.18-4-1.2-7.76-3.08-11.33C282.14,337.2,292.2,331.02,297.95,319.31z M240.21,429.3
		c-1.05-1.12-1.95-2.26-2.7-3.38c-9.54-14.41-15.26-30.8-20.48-46.93l28.48,2.07c0.01,1.18,0,2.42-0.08,3.63l-0.36,5.16
		c-0.73,10.48-1.49,21.32-2.55,31.91C242.27,424.15,241.28,426.75,240.21,429.3z M193.68,371.6c1.57,0.67,1.91,1.15,2.28,2.46
		c1.35,4.87,2.92,9.71,4.44,14.4c0.41,1.27,0.82,2.54,1.23,3.81c-19.77-3.11-31.14-14.47-36.53-36.17
		c-0.29-1.19-0.57-2.39-0.82-3.62C172.81,360.5,182.66,366.92,193.68,371.6z M238.2,171.74c8.45,0.01,16.39,3.32,22.34,9.32
		c5.96,6.01,9.23,14,9.21,22.5c-0.04,17.38-14.24,31.51-31.67,31.51l-0.23,0c-17.32-0.12-31.42-14.35-31.42-31.72
		c0-8.46,3.29-16.41,9.27-22.36c5.98-5.96,13.96-9.24,22.46-9.24H238.2z"/>
	<path d="M397.98,387.89h-52.89v0.09l-23.28-0.01c-7.4,0-14.81,0-22.21,0.02c-2.31,0-5.66,0.29-8.06,2.75
		c-2.4,2.45-2.62,5.81-2.57,8.12c0.62,32.09,27.13,58.46,59.09,58.78l0.63,0c32.9,0,59.59-25.4,60.77-57.82
		c0.1-2.85-0.09-6.46-2.57-9.03C404.41,388.22,400.83,387.89,397.98,387.89z M350.41,438.82c-0.42,0.01-0.84,0.02-1.26,0.02
		c0,0,0,0,0,0c-19.07,0-36.5-14.12-40.2-31.69h80.52C386.56,421.15,372.84,438.1,350.41,438.82z"/>
</g>
</svg>
