<?xml version="1.0" encoding="utf-8"?>
<!-- Generator: Adobe Illustrator 26.5.0, SVG Export Plug-In . SVG Version: 6.00 Build 0)  -->
<svg version="1.1" id="Layer_1" xmlns="http://www.w3.org/2000/svg" xmlns:xlink="http://www.w3.org/1999/xlink" x="0px" y="0px"
	 viewBox="0 0 500 500" style="enable-background:new 0 0 500 500;" xml:space="preserve">
<g>
	<path d="M168.84,403.45c-4.36-1.73-8.67,0.39-10.77,5.21c-1.68,3.86-3.33,7.74-5.23,11.5c-6.7,13.25-14.98,25.31-26.69,34.69
		c-8.22,6.59-17.41,11.07-28.06,11.93c-14.14,1.15-26.13-4.05-36.73-12.91c-12.41-10.37-20.96-23.6-27.64-38.12
		c-10.83-23.52-15.95-48.4-17.23-74.15c-1.53-30.78,2.35-60.77,13.62-89.59c2.64-6.76,6.01-13.23,9.25-20.27
		c12.75,21.32,32.08,29.17,54.98,29.16c22.93-0.01,42.33-7.83,54.98-29.13c3.09,6.63,6,12.75,8.78,18.93
		c2.15,4.77,6.47,6.89,10.82,5.11c4.36-1.79,6.09-6.35,4.12-11.21c-4.23-10.47-9.39-20.47-15.83-29.77
		c-7.11-10.27-15.41-19.38-25.77-26.48c-13.47-9.23-28.23-13.72-44.63-11.65c-15.25,1.92-27.99,9.06-39.13,19.32
		c-13.33,12.28-22.86,27.24-29.96,43.74c-17.75,41.33-21.1,84.38-14.72,128.5c0.67,4.64,1.62,9.24,2.51,13.8l2.09,8.52
		c3.17,11.94,7.28,23.54,12.72,34.65c8.11,16.57,18.4,31.49,33.12,42.92c13.67,10.62,29.01,16.28,46.56,14.66
		c15.04-1.39,27.81-7.96,39.01-17.75c15.79-13.79,26.2-31.26,34.04-50.42C175.01,409.84,173.2,405.18,168.84,403.45z M53.12,213.41
		c9.15-10.09,19.76-17.86,33.52-20.36c11.05-2.01,21.35,0.29,31.05,5.69c6.76,3.76,12.56,8.72,17.68,14.47
		c0.58,0.66,0.87,1.81,0.87,2.73c-0.01,8.38-4.25,14.53-10.66,19.34c-9.23,6.92-19.88,9.47-30.6,9.64
		c-10.82-0.09-20.47-2.24-29.13-7.74c-7.77-4.93-13.32-11.41-13.44-21.23C52.4,215.09,52.58,213.99,53.12,213.41z"/>
	<path d="M274.4,272.97c-4.05,36.63-57.51,60.53-88.14,38.16c-0.13,1.19-0.25,2.14-0.33,3.09c-1.62,21.86,1.86,43.06,8.58,63.77
		c8.71,26.85,22,51.14,41.23,71.97c10.96,11.87,23.35,21.88,38.51,27.99c9.69,3.9,19.68,5.63,30.04,3.11
		c10.47-2.54,17.94-9.18,23.67-17.94c7.63-11.66,10.95-24.76,12.32-38.44c1.47-14.77,0.41-29.37-3.24-43.78
		c-1.14-4.49,1.37-8.63,5.7-9.82c4.24-1.16,8.71,1.23,9.82,5.71c7.14,29.04,6.76,57.7-5.72,85.34
		c-7.27,16.09-18.97,27.99-36.09,33.7c-13.51,4.5-26.85,2.81-39.93-1.97c-17.85-6.52-32.61-17.67-45.45-31.39
		c-27.97-29.89-44.91-65.42-52.81-105.37c-3.92-19.84-4.59-39.8-0.54-59.74c2.63-12.97,7.31-25.09,15.46-35.67
		c10.69-13.87,24.96-20.68,42.3-22.11c10.79-0.89,20.64,1.8,30.23,6.09c20.5,9.16,36.77,23.63,50.77,40.88
		c1.03,1.27,2.05,2.55,3.02,3.86c2.89,3.9,2.42,8.73-1.09,11.53c-3.6,2.88-8.59,2.24-11.62-1.67c-6.41-8.24-13.35-15.97-21.26-22.8
		C278.16,276.04,276.42,274.65,274.4,272.97z M213.84,304.24c4.78-0.81,8.83-1.16,12.7-2.21c11.22-3.05,20.61-8.97,27.22-18.76
		c3-4.44,4.85-9.31,4.42-14.8c-0.32-4.09-1.56-7.5-6.2-8.56c-2-0.46-3.88-1.4-5.87-1.95c-17.09-4.75-32.39-2.11-44.28,11.86
		c-3.83,4.5-6.6,10.02-9.29,15.36c-2.65,5.26-1.92,7.93,2.5,11.92c1.82,1.64,3.95,3.23,6.23,3.99
		C205.54,302.52,210.02,303.32,213.84,304.24z"/>
	<path d="M429.59,61.29c-0.22-18.64-4.61-34.14-13.7-48.27c-3.4-5.28-2.06-8.95,4.04-10.55c6.66-1.75,13.33-0.69,19.96,0.4
		c8.94,1.47,16.53,5.74,23.26,11.57c17.18,14.89,27.45,33.98,33,55.71c5.4,21.14,5.56,42.19-2.41,62.89
		c-14.38,37.32-52.04,65.2-95.77,61.6c-30.08-2.48-53.43-17.03-70.62-41.66c-2.08-2.98-2.17-6.14-0.12-9.17
		c2.04-3.01,4.96-4.08,8.54-3.36c44.55,9.06,86.41-22.88,92.84-68.72C429.19,67.65,429.39,63.52,429.59,61.29z M353.34,158.24
		c0.49,0.52,0.92,1.03,1.41,1.47c25.23,22.41,62.44,25.8,90.75,7.32c28.08-18.33,40.46-45.14,37.82-78.24
		c-2.29-28.78-16.64-50.64-41.68-65.29c-0.92-0.54-1.9-0.96-2.99-1.5c1.36,4.94,2.87,9.51,3.85,14.18
		c2.87,13.63,2.94,27.49,3.17,41.34c0.15,9.08-1.84,17.65-6.02,25.59c-15.1,28.67-39.08,45.73-70.36,52.87
		C364.13,157.16,358.78,157.49,353.34,158.24z"/>
	<path d="M281.9,89.96c0.93-6.61,1.83-13.95,3.04-21.25c0.48-2.89-0.03-4.92-2.24-7.01c-4.93-4.67-9.51-9.7-14.28-14.55
		c-2.41-2.46-3.59-5.25-2.5-8.66c1.11-3.51,3.73-5.17,7.23-5.76c7.21-1.22,14.39-2.56,21.6-3.74c1.77-0.29,2.86-1,3.7-2.65
		c3.31-6.52,6.81-12.93,10.16-19.43c1.59-3.09,3.93-5.04,7.46-5.09c3.65-0.05,6.05,1.93,7.71,5.11c3.42,6.56,6.97,13.05,10.37,19.61
		c0.74,1.43,1.64,2.19,3.27,2.45c7.22,1.16,14.4,2.49,21.62,3.66c3.5,0.57,6.22,2.11,7.37,5.59c1.14,3.45,0.05,6.36-2.46,8.92
		c-5.24,5.34-10.45,10.72-15.55,16.2c-0.74,0.8-1.26,2.27-1.13,3.34c0.94,7.42,2.05,14.82,3.18,22.22c0.52,3.43-0.23,6.37-3.08,8.49
		c-2.84,2.11-5.87,2.05-9,0.51c-6.63-3.27-13.32-6.44-19.92-9.76c-1.62-0.81-2.91-0.87-4.55-0.03c-6.74,3.43-13.51,6.81-20.36,10.04
		C287.77,100.88,281.74,96.93,281.9,89.96z M300.03,77c4.02-1.98,7.68-3.65,11.21-5.56c3.33-1.8,6.47-1.77,9.8,0.01
		c3.54,1.89,7.2,3.54,11.32,5.55c-0.43-3.06-0.51-5.65-1.17-8.07c-1.81-6.66-0.49-12.11,5.14-16.48c2.17-1.68,3.88-3.95,6.08-6.25
		c-4.47-0.78-8.34-1.59-12.25-2.11c-3.75-0.5-6.31-2.3-7.97-5.71c-1.79-3.67-3.82-7.23-5.97-11.26c-2.02,3.83-3.97,7.17-5.58,10.66
		c-1.76,3.81-4.54,5.79-8.69,6.31c-3.84,0.48-7.64,1.34-11.46,2.03c-0.2,0.35-0.4,0.69-0.6,1.04c3.1,2.83,6.24,5.63,9.3,8.51
		c2.37,2.22,3.2,4.92,2.64,8.19C301.12,68.05,300.66,72.31,300.03,77z"/>
	<path d="M290.44,133.45c-1.12,1.94-1.96,4.14-3.43,5.78c-3.9,4.35-8,8.54-12.18,12.63c-1.48,1.46-1.76,2.86-1.44,4.81
		c0.94,5.77,1.68,11.57,2.54,17.36c0.49,3.27-0.44,5.99-3.07,7.99c-2.73,2.07-5.72,2.13-8.76,0.65c-5.42-2.63-10.85-5.21-16.21-7.94
		c-1.61-0.82-2.89-0.89-4.53-0.03c-5.19,2.69-10.49,5.16-15.71,7.8c-3.1,1.57-6.12,1.73-9.02-0.31c-2.92-2.05-3.73-5-3.24-8.42
		c0.8-5.62,1.49-11.26,2.41-16.85c0.37-2.23,0.03-3.83-1.69-5.48c-4.1-3.92-7.95-8.1-11.95-12.14c-2.45-2.48-3.47-5.33-2.36-8.7
		c1.11-3.37,3.65-5.01,7.08-5.58c5.85-0.97,11.68-2.11,17.53-3.04c1.71-0.27,2.69-1.04,3.47-2.58c2.64-5.22,5.46-10.34,8.14-15.54
		c1.59-3.08,3.92-5.03,7.47-5.07c3.66-0.04,6.06,1.93,7.71,5.1c2.73,5.27,5.61,10.46,8.32,15.73c0.75,1.45,1.68,2.13,3.31,2.38
		c6.03,0.94,12.04,2,18.05,3.09C287.17,125.86,289.86,129.03,290.44,133.45z M245.62,124.08c-1.49,2.82-2.81,5.21-4.02,7.66
		c-1.49,3.03-3.88,4.69-7.2,5.17c-2.7,0.4-5.37,0.95-8.51,1.52c2.28,2.35,4.22,4.39,6.2,6.39c2.15,2.17,3.04,4.69,2.56,7.74
		c-0.46,2.86-0.78,5.75-1.22,9.09c2.84-1.39,5.32-2.53,7.72-3.81c2.99-1.59,5.88-1.56,8.86,0.01c2.42,1.27,4.91,2.41,7.82,3.82
		c-0.42-2.99-0.68-5.53-1.15-8.02c-0.7-3.7,0.26-6.74,3.05-9.32c1.87-1.73,3.55-3.68,5.63-5.87c-3.14-0.56-5.82-1.1-8.51-1.5
		c-3.24-0.47-5.53-2.11-7-5.04C248.57,129.41,247.17,126.96,245.62,124.08z"/>
	<path d="M107,386.4c0.42-4.12,1.14-12.25,2.12-20.36c1.61-13.31-1.01-25.83-6.71-37.82c-0.59-1.24-1.22-2.47-1.75-3.74
		c-1.75-4.16-0.17-8.61,3.71-10.54c4.02-2,8.63-0.56,10.77,3.6c4.15,8.07,7.12,16.56,8.92,25.47c2.4,11.91,1.57,23.82-0.2,35.68
		c-2,13.44-0.82,26.38,4.92,38.82c1.66,3.59,0.87,7.06-1.71,9.45c-2.48,2.31-6.21,3.1-9.05,1.21c-1.8-1.2-3.41-3.19-4.3-5.18
		C109.09,412.66,106.79,401.79,107,386.4z"/>
	<path d="M62.16,328.83c-0.68,6.57-1.34,14.27-2.3,21.95c-1.49,11.91,0.24,23.29,5.04,34.27c0.67,1.52,1.14,3.31,1.06,4.95
		c-0.19,3.68-2.95,6.57-6.34,7.17c-3.94,0.69-7.31-1.04-9.03-4.81c-6.07-13.29-8.21-27.25-6.83-41.76
		c0.51-5.3,1.08-10.61,1.77-15.89c1.83-14.14-1.24-27.33-7.45-39.97c-0.71-1.45-1.41-2.99-1.66-4.57c-0.58-3.63,1.84-7.25,5.37-8.45
		c3.75-1.28,7.82,0.19,9.69,3.83c5.35,10.41,8.94,21.39,10.06,33.1C61.82,321.65,61.91,324.66,62.16,328.83z"/>
	<path d="M263.24,357.28c0.13-3.3,1.64-5.78,4.64-7.16c3.1-1.42,6.08-0.98,8.68,1.22c9.32,7.87,17.15,16.99,21.91,28.31
		c2.79,6.63,5.03,13.54,7,20.46c3.01,10.54,8.28,19.55,16.35,26.99c3.81,3.51,4.02,8.52,0.76,11.91c-3.27,3.39-8.1,3.26-11.95-0.33
		c-9.95-9.27-16.51-20.58-20.39-33.54c-1.53-5.1-3.03-10.22-4.74-15.27c-3.54-10.43-10.33-18.54-18.58-25.56
		C264.72,362.45,263.17,360.31,263.24,357.28z"/>
	<path d="M209.28,345.2c1.91,1.02,4.07,1.76,5.7,3.12c14.09,11.66,22.82,26.67,27.2,44.29c3.02,12.14,8.4,22.84,17.86,31.33
		c3.56,3.19,3.47,8.31,0.28,11.53c-3.19,3.22-7.97,3.19-11.58-0.11c-10.79-9.88-17.48-22.2-21.42-36.14
		c-0.51-1.82-1.13-3.61-1.58-5.45c-3.32-13.52-10.56-24.53-21.28-33.32c-2.93-2.4-4.21-5.4-3.04-9.15
		C202.46,347.97,205.52,345.76,209.28,345.2z"/>
	<path d="M331.65,321.49c-0.04,4.46-3.66,8.01-8.11,7.96c-4.42-0.06-7.98-3.7-7.96-8.15c0.02-4.41,3.62-7.91,8.16-7.92
		C328.17,313.36,331.69,316.97,331.65,321.49z"/>
	<path d="M336.76,357.69c-4.39,0.02-8.06-3.65-8.06-8.06c0-4.43,3.62-8.07,8.04-8.07c4.4,0,8.09,3.67,8.09,8.05
		C344.83,354,341.16,357.67,336.76,357.69z"/>
</g>
</svg>
